<svg width="820" height="383" viewBox="0 0 820 383" fill="none" xmlns="http://www.w3.org/2000/svg">
<g style="mix-blend-mode:luminosity">
<path d="M304.45 110.24C305.882 109.938 322.893 110.035 325.465 110.027L385.529 110.013L549.096 110.026L594.296 109.992C599.165 109.99 613.011 109.709 617.107 110.398L617.374 110.846C617.225 111.372 617.002 111.813 616.661 112.237C613.021 116.737 560.098 169.592 558.733 170.176C555.195 171.69 519.571 170.928 513.192 170.932L380.635 170.976L340.798 170.971C326.269 170.978 313.929 170.869 299.384 172.438C292.031 173.671 285.965 175.78 279.09 178.475C264.929 184.026 254.775 195.279 244.055 205.62C234.909 214.44 225.818 223.315 216.782 232.246L192.628 255.915C187.439 260.96 181.239 266.803 176.316 272.002C170.604 272.382 162.769 272.171 156.899 272.17L122.753 272.154L100.619 272.165C98.4854 272.166 86.4283 272.506 85.4473 271.2C86.5756 268.726 97.7847 258.16 100.485 255.49L126.441 229.692L173.169 183.118C220.434 135.971 235.814 115.867 304.45 110.24Z" fill="#595959"/>
<path d="M324.055 180.503C330.876 180.191 338.377 180.331 345.244 180.328L379.294 180.325L483.001 180.311L525.954 180.254C529.018 180.245 544.47 180.029 546.258 180.562C546.727 181.743 546.514 182.436 545.653 183.376C542.068 187.292 538.219 190.98 534.448 194.72L517.692 211.524L503.335 225.892C499.676 229.569 495.726 233.86 491.557 236.869C481.477 237.59 464.846 237.038 454.206 237.037L382.088 237.069L346.979 237.049C338.984 237.046 330.954 236.631 323.031 237.949C301.722 241.496 292.339 258.899 277.192 271.893C274.151 272.356 268.056 272.186 264.78 272.177L243.947 272.138L211.879 272.18C206.604 272.187 201.24 272.218 195.957 272.163C194.965 272.153 194.652 271.939 194.097 271.332C194.074 270.654 193.958 270.37 194.549 269.809C197.887 266.645 201.25 263.312 204.507 260.094L227.054 237.69L252.321 212.412C260.835 203.855 269.908 193.793 281.203 188.794C294.442 182.935 309.748 181.354 324.055 180.503Z" fill="#595959"/>
<path d="M636.268 110.141C655.065 109.495 676.862 110.006 696 109.979L717.274 109.956C721.626 109.954 727.326 109.773 731.516 110.427L731.59 111.074C729.577 115.498 701.072 142.768 695.933 147.913L619.945 223.799C608.01 235.856 596.005 247.841 583.925 259.755C580.188 263.388 575.269 269.155 570.961 272.04C567.967 272.313 562.233 272.159 559.033 272.159L537.006 272.16C529.738 272.16 476.942 272.603 475.473 271.488L475.52 270.814C477.111 268.718 478.527 267.291 480.402 265.45C487.086 258.887 493.634 252.187 500.26 245.568L554.884 191.16L616.988 128.992C619.674 126.325 634.102 111.432 636.268 110.141Z" fill="#595959"/>
</g>
</svg>
