<svg width="820" height="383" viewBox="0 0 820 383" fill="none" xmlns="http://www.w3.org/2000/svg">
<g style="mix-blend-mode:luminosity">
<path d="M274.017 188.035L274.289 188.182C274.726 188.991 273.672 203.018 273.571 204.909C279.09 205.33 288.737 205.113 294.339 205.013C293.459 209.099 292.344 213.247 291.583 217.325C286.241 217.04 279.11 217.228 273.629 217.227C273.586 225.151 272.558 236.045 275.475 243.024C283.424 246.56 296.599 245.377 305.434 245.351L342.611 245.365C341.714 240.984 341.666 234.786 342.001 230.324C344.213 200.838 372.364 203.025 394.617 204.917L394.622 244.608L394.55 257.737C389.543 257.63 384.298 257.717 379.273 257.728C379.548 249.576 378.87 239.91 379.705 232.052C375.232 239.824 371.198 252.061 362.341 256.248C358.662 257.987 349.928 257.694 345.639 257.698L299.192 257.704C290.245 257.705 280.594 258.156 271.804 256.86C266.08 256.016 259.916 249.715 259.197 243.996C258.115 235.391 258.566 226.011 258.635 217.29C255.145 217.168 251.69 217.055 248.205 217.308C248.432 213.239 248.806 209.179 249.327 205.137L258.545 205.048C258.459 202.855 258.643 199.608 258.703 197.34C263.378 192.101 267.566 190.196 274.017 188.035ZM358.268 219.415C357.004 225.092 357.359 237.547 359.41 243.07C362.752 246.12 364.527 246.209 368.15 243.16C372.021 238.679 378.35 221.396 379.326 215.191C377.152 215.139 369.145 214.89 367.333 215.327C362.873 215.989 361.751 216.393 358.268 219.415Z" fill="#595959"/>
<path d="M142.155 186.046C186.049 180.413 195.841 232.419 155.265 245.076C164.673 249.323 175.062 255.529 184.101 260.641C187.182 262.383 188.995 265.758 189.835 269.101C190.488 271.702 191.64 277.108 190.665 279.688C189.808 280.028 189.851 279.82 188.786 279.387C186.638 278.114 183.44 276.743 181.089 275.501L155.575 262.173C138.942 253.626 116.012 243.624 113.361 222.35C111.053 203.839 123.506 188.109 142.155 186.046ZM151.113 242.81C151.407 242.948 151.88 243.287 152.176 243.038C162.601 234.302 168.087 220.996 162.838 207.764C159.649 199.726 152.17 197.485 144.295 197.909C132.316 200.441 127.712 209.729 130.016 221.336C132.249 232.588 142.669 237.289 151.113 242.81Z" fill="#595959"/>
<path d="M537.544 189.514C586.718 185.558 588.078 243.401 547.623 257.786C539.852 259.838 533.179 256.717 526.928 252.175C501.209 233.492 501.896 195.407 537.544 189.514ZM542.738 253.428C544.213 252.805 545.74 252.181 547.204 251.539C558.796 244.221 565.26 221.116 557.928 209.406C555.645 205.79 552.026 203.225 547.856 202.271C545.018 201.626 540.549 201.778 537.603 202.082C521.712 208.119 522.943 224.133 527.887 237.992C530.585 245.559 535.312 250.407 542.738 253.428Z" fill="#595959"/>
<path d="M542.689 215.832C545.199 216.92 549.675 221.698 551.715 223.802C549.923 226.52 545.851 230.46 543.069 232.175C540.527 231.004 536.047 226.377 534.35 224.053C536.567 220.874 539.757 218.375 542.689 215.832Z" fill="#595959" fill-opacity="0.988235"/>
<path d="M508.594 110.965C518.335 110.766 530.812 110.559 540.413 111.627C547.658 112.66 554 115.714 558.455 121.422C565.229 130.099 564.539 153.557 555.23 160.224C539.507 170.994 526.799 167.323 508.677 168.016C508.594 149.243 509.064 129.651 508.594 110.965ZM523.843 156.695C531.928 156.524 537.189 157.474 543.363 152.01C544.963 150.711 546.553 147.343 547.006 145.47C550.231 132.132 543.52 121.051 528.881 121.88C527.901 121.936 524.784 121.812 523.819 121.672C523.763 129.352 523.752 137.033 523.794 144.714C523.808 148.331 524.017 153.221 523.843 156.695Z" fill="#595959"/>
<path d="M296.114 110.972C302.572 110.861 309.031 110.885 315.487 111.044C317.22 123.375 320.031 135.727 321.919 148.061C322.312 150.63 322.821 153.256 323.427 155.783C324.272 153.56 325.269 145.507 325.763 142.501L330.918 111.131C334.767 110.7 341.62 110.941 345.718 110.994C344.735 113.937 343.324 121.151 342.596 124.444C340.478 134.214 338.326 143.886 336.145 153.64C335.229 157.734 333.183 164.115 332.814 167.987C327.57 167.694 318.737 167.951 313.288 167.97C311.118 152.287 307.989 137.922 305.219 122.374C304.371 125.924 304.129 130.185 303.453 133.888C301.418 145.023 299.267 156.755 297.538 167.934C291.683 167.93 283.904 167.696 278.198 168.061C274.259 153.371 271.812 138.132 268.165 123.365C267.205 119.477 266.141 115.035 265.666 111.073C270.665 110.86 275.67 110.859 280.669 111.069C281.646 115.643 282.584 120.346 283.237 124.971C284.692 135.27 286.539 145.383 287.929 155.703C289.9 148.307 290.959 140.588 292.221 133.043C293.429 125.821 295.166 118.212 296.114 110.972Z" fill="#595959"/>
<path d="M370.006 110.147C386.148 107.3 401.535 118.1 404.355 134.255C407.172 150.409 396.354 165.787 380.203 168.58C364.089 171.368 348.763 160.573 345.95 144.456C343.138 128.339 353.902 112.987 370.006 110.147ZM377.445 157.436C381.352 156.247 383.933 154.687 385.814 150.866C388.606 145.193 388.648 136.028 386.869 130.079C384.789 123.122 379.155 120.472 372.425 121.129C356.777 126.024 358.47 159.967 377.445 157.436Z" fill="#595959"/>
<path d="M216.716 204.199C220.264 203.475 237.858 204.559 241.522 205.061C241.462 207.26 241.484 209.569 241.501 211.775C241.616 227.06 241.255 242.395 241.401 257.674C236.501 257.677 231.006 257.57 226.161 257.818C226.115 249.1 226.15 240.38 226.264 231.662C224.999 234.967 222.882 238.692 221.38 242.074C220.646 244.021 216.605 249.982 215.263 251.505C201.847 266.732 189.191 256.142 188.468 239.285C187.564 218.217 195.181 205.835 216.716 204.199ZM214.725 243.303C219.202 238.358 224.52 222.036 226.158 215.175C223.608 215.115 216.263 214.862 213.996 215.336C201.568 217.01 204.315 223.754 204.267 233.529C204.235 240.16 206.625 249.04 214.725 243.303Z" fill="#595959"/>
<path d="M409.722 110.996C413.299 110.914 416.712 110.911 420.648 110.908C435.116 110.9 459.245 107.514 454.155 130.652C453.001 135.89 449.626 137.161 445.164 139.641C445.844 140.347 448.849 143.437 449.103 144.091C452.196 151.98 454.751 159.948 458.014 167.796C453.869 168.209 446.893 167.959 442.521 167.901C440.816 167.046 437.968 151.148 434.537 147.868C431.225 144.702 429.507 145.188 424.821 144.843C424.797 151.906 424.518 161.13 424.866 168.018C420.069 167.975 414.327 167.792 409.617 168.071L409.722 110.996ZM424.877 135.001C428.52 134.833 434.45 135.007 437.344 132.946C438.822 131.655 439.962 130.974 440.14 128.88C440.869 120.352 430.322 121.64 424.772 121.266C424.988 125.763 424.901 130.48 424.877 135.001Z" fill="#595959"/>
<path d="M216.088 111.031C221.423 110.69 228.485 110.927 233.934 110.993C240.437 125.316 244.975 142.434 250.868 157.169C252.26 160.651 253.753 164.314 254.709 167.932C249.376 167.828 242.545 167.824 237.249 168.019C236.842 165.994 236.107 162.951 235.059 161.148C234.595 160.35 234.311 160.506 233.304 160.328C227.039 160.116 220.612 160.26 214.337 160.383C213.55 162.93 212.998 165.397 212.399 167.986C207.15 167.952 200.257 167.724 195.145 168.076C196.338 163.932 214.827 112.546 216.088 111.031ZM217.391 149.354L225.66 149.321L231.903 149.288C230.682 146.131 225.503 126.246 224.709 125.454C221.909 133.116 220.194 142.196 217.391 149.354Z" fill="#595959"/>
<path d="M600.333 189.519C601.577 189.448 602.826 189.394 604.074 189.357C617.719 188.999 631.337 194.345 631.542 210.211C631.786 229.308 612.423 236.528 597.756 242.761C596.034 243.493 592.426 243.621 591.192 244.894L591.349 245.268C592.59 245.596 593.712 245.364 594.978 245.364C607.842 245.36 620.86 245.168 633.711 245.484C632.892 249.489 632.1 253.498 631.337 257.512C626.515 257.807 620.763 257.685 615.864 257.69C611.242 257.689 582.922 258.052 580.144 257.25C578.986 255.405 579.115 249.785 579.049 247.38C582.03 245.837 585.638 243.509 588.727 241.501C599.283 234.636 621.502 223.313 614.602 207.602C610.356 197.937 589.619 202.007 581.82 206.144C582.947 200.889 583.323 197.845 586.471 193.413C591.805 190.897 594.465 190.296 600.333 189.519Z" fill="#595959"/>
<path d="M469.861 189.522C487.129 187.546 503.821 194.721 500.725 214.925C498.285 230.827 481.233 236.852 468.31 242.358C466.535 243.115 462.233 243.974 461.117 244.817L461.257 245.212C462.428 245.55 471.977 245.324 473.943 245.322C483.845 245.248 493.746 245.312 503.643 245.515C502.828 250.486 502.245 252.963 500.485 257.668L485.828 257.677C474.564 257.753 461.02 257.252 450.038 257.756C449.117 254.529 449.117 250.888 449.037 247.531C458.36 239.944 481.788 230.498 484.992 217.952C490.465 196.5 462.672 200.342 450.958 206.444C452.377 202.803 453.001 197.968 455.229 194.874C458.049 190.963 465.343 190.116 469.861 189.522Z" fill="#595959"/>
<path d="M660.182 189.519C678.816 187.783 694.634 195.615 690.272 216.706C687.278 231.178 670.704 237.103 658.714 242.228C657.041 242.943 652.059 244.078 651.034 245.056C651.665 245.411 689.592 245.466 693.682 245.515C693.166 249.719 692.022 253.822 690.293 257.687L675.665 257.672C664.017 257.707 651.731 257.934 640.135 257.616C639.219 254.335 639.138 250.89 639.055 247.508C648.168 240.953 671.575 229.693 674.706 218.702C681.037 196.483 653.502 200.23 640.955 206.442C642.468 202.61 643.587 197.634 645.33 194.085C650.113 191.061 654.687 190.17 660.182 189.519Z" fill="#595959"/>
<path d="M672.844 110.999C677.816 110.864 682.787 110.883 687.755 111.057L687.713 121.302C687.658 130.188 687.971 139.441 687.511 148.28C687.1 154.11 685.531 159.264 680.967 163.139C668.838 173.434 641.045 170.399 638.41 151.935C637.388 144.937 638.141 137.698 637.932 130.632C637.848 127.772 637.803 124.729 637.834 121.884C637.869 118.459 637.524 114.364 637.838 111.019C642.841 110.842 648.032 110.941 653.056 110.973C652.672 122.792 653.091 135.101 653.122 146.928C653.234 154.066 657.766 158.899 665.174 157.409C673.953 155.645 673.294 142.301 673.064 135.429C672.802 127.628 673.604 118.642 672.844 110.999Z" fill="#595959"/>
<path d="M695.754 111.101C701.486 110.695 707.336 111.032 713.046 110.888C724.977 110.588 738.281 113.426 739.469 127.693C739.884 132.458 738.382 137.193 735.296 140.848C730.816 146.111 724.788 147.394 718.279 147.882C715.762 147.931 713.245 147.929 710.728 147.876C711.024 154.601 710.477 161.443 710.756 168.068C707.116 167.721 699.234 167.926 695.287 167.91C695.507 161.69 695.001 112.518 695.754 111.101ZM710.829 137.198C714.943 137.112 718.754 137.372 722.344 135.063C724.781 131.091 724.572 128.203 722.948 123.955C718.279 121.271 716.236 121.476 710.85 121.247L710.829 137.198Z" fill="#595959"/>
<path d="M80.7926 111.066C83.0568 110.95 85.3758 110.906 87.6439 110.935C99.8866 111.092 112.314 110.606 124.54 111.069C122.964 113.902 121.151 119.857 120.082 123.095C112.795 123.027 105.507 123.021 98.2194 123.079C98.3491 127.158 98.3111 130.961 98.2494 135.041C104.009 135.03 109.769 135.081 115.528 135.195C114.777 136.965 113.957 139.501 113.294 141.366C112.94 142.771 111.726 145.779 111.173 147.261C107.075 147.126 102.38 147.238 98.2365 147.243C98.4826 154.184 98.1106 161.107 98.2424 168.014C92.3303 167.943 86.4181 167.914 80.5059 167.925C81.2657 154.391 80.3994 139.061 80.7135 125.374C80.7563 123.51 80.4779 112.202 80.7926 111.066Z" fill="#595959"/>
<path d="M160.236 110.986L204.045 110.926C201.846 115.687 201.075 118.036 199.868 123.027C193.275 123.264 184.312 123.137 177.661 122.981C177.764 126.947 177.723 131.13 177.746 135.115C183.428 134.989 189.2 135.144 194.929 135.033L192.406 141.895C191.883 143.34 191.27 145.634 190.807 147.166C186.448 147.27 182.086 147.278 177.726 147.191C177.881 154.021 177.405 161.257 177.738 168.061C172.912 167.84 164.942 167.834 160.148 168.036L160.236 110.986Z" fill="#595959"/>
<path d="M611.08 110.367C618.322 109.512 625.664 110.732 632.609 112.718C632.033 116.435 631.862 120.978 631.622 124.784C624.538 120.652 613.517 119.081 606.402 123.979C602.598 126.602 599.987 130.623 599.136 135.164C598.198 140.235 598.847 146.02 601.873 150.351C608.089 159.255 620.058 158.279 629.328 155.898C630.182 155.679 630.841 155.36 631.74 155.52L632.068 156.223L632.525 166.857C629.495 167.625 626.413 168.168 623.304 168.479C612.172 169.59 601.388 168.351 592.687 161.225C577.064 148.437 581.112 118.67 601.068 112.388C605.136 111.107 606.806 110.757 611.08 110.367Z" fill="#595959"/>
<path d="M442.015 204.113C442.409 204.053 442.701 204.18 443.088 204.29C444.483 206.837 444.615 215.973 444.706 219.279C426.692 217.3 422.265 244.655 422.421 257.612C417.551 257.623 412.276 257.536 407.448 257.767L407.563 238.416C407.563 231.354 407.612 211.449 406.479 205.167C411.37 205.045 416.265 205.024 421.156 205.102C422.352 213.304 422.435 220.996 422.505 229.236C427.71 217.06 426.786 208.155 442.015 204.113Z" fill="#595959"/>
<path d="M464.68 111.021C469.662 110.89 474.647 110.889 479.629 111.018C479.228 114.069 479.465 120.008 479.378 123.308C479.085 134.116 479.852 145.882 479.329 156.584L503.116 156.586C503.141 158.558 503.521 166.854 502.625 167.959C501.272 167.888 499.634 167.943 498.27 167.97C487.156 168.186 475.902 167.668 464.798 168.003L464.864 132.914C464.858 125.935 465.032 117.864 464.68 111.021Z" fill="#595959"/>
<path d="M130.151 110.975C135.977 110.89 141.803 110.9 147.629 111.005C146.704 128.707 148.261 149.465 147.451 167.426L146.824 167.906C141.246 167.905 135.669 167.944 130.092 168.026C130.611 159.897 130.308 148.746 130.294 140.303C130.28 131.24 130.613 119.879 130.151 110.975Z" fill="#595959"/>
</g>
</svg>
