<svg width="820" height="383" viewBox="0 0 820 383" fill="none" xmlns="http://www.w3.org/2000/svg">
<g style="mix-blend-mode:luminosity">
<path d="M286.434 188.219C291.031 187.919 297.958 188.132 302.71 188.132C312.043 188.101 321.375 188.121 330.707 188.191C330.542 191.35 330.625 195.185 330.622 198.388L330.616 216.321C330.619 238.678 330.963 261.917 330.547 284.202C323.475 283.862 316.174 284.215 309.078 284.091C306.698 284.05 304.132 284.063 301.769 284.216C301.468 277.702 301.731 269.274 301.732 262.563L301.662 215.702L301.658 209.789C299.651 214.585 297.156 224.716 295.668 229.858L283.374 272.238C282.802 274.179 280.459 282.949 279.791 283.915C278.5 284.227 274.034 284.108 272.495 284.105L258.648 284.082C258.26 282.909 257.964 281.596 257.621 280.395C251.755 259.838 246.036 239.239 240.113 218.699C239.295 215.863 238.607 212.79 237.498 210.068C237.438 211.999 237.613 214.816 237.616 216.876L237.546 231.792L237.52 284.208C231.357 283.852 220.755 283.992 214.459 284.136C214.694 276.588 214.508 268.05 214.512 260.405L214.504 214.265L214.486 197.088C214.48 194.792 214.327 190.215 214.547 188.214C223.402 187.811 233.557 188.343 242.553 188.145C245.294 188.085 257.006 188.035 259.032 188.379C260.005 189.35 271.244 233.004 272.887 238.22L282.507 202.415C283.653 198.23 285.099 192.211 286.434 188.219Z" fill="#595959"/>
<path d="M540.948 186.232C541.132 186.22 541.315 186.209 541.498 186.2C555.31 185.488 569.74 189.141 580.216 198.513C603.813 219.627 600.337 264.736 571.254 279.562C564.371 283.07 556.09 285.575 548.331 285.958C519.538 287.938 495.523 270.267 493.605 240.553C492.476 223.081 498.398 206.06 513.108 195.647C521.883 189.434 530.439 187.273 540.948 186.232ZM547.358 259.131C560.097 257.621 569.193 246.06 567.662 233.323C566.132 220.586 554.555 211.509 541.823 213.061C529.119 214.61 520.068 226.153 521.595 238.86C523.123 251.567 534.65 260.637 547.358 259.131Z" fill="#595959"/>
<path d="M339.896 188.191C351.21 187.995 362.922 188.133 374.253 188.137C387.938 188.096 401.622 188.127 415.307 188.23L415.327 208.542C413.47 208.6 411.306 208.602 409.438 208.551C396.1 208.183 382.253 209.036 368.954 208.483C369.089 211.253 368.99 214.596 369.005 217.419C369.017 219.661 369.092 223.047 368.871 225.152C378.117 225.075 387.364 225.083 396.61 225.177C396.417 227.274 396.547 231.511 396.546 233.774C396.545 237.64 396.372 242.179 396.582 245.986C389.132 245.86 381.656 245.971 374.203 245.931C372.495 245.922 370.767 245.999 369.071 245.788C368.976 249.633 368.945 253.479 368.979 257.325C368.993 259.281 368.981 261.238 368.942 263.193L416.352 263.251C416.062 269.478 416.288 277.813 416.265 284.235C412.625 283.988 407.976 284.104 404.28 284.099L383.602 284.081L356.148 284.08C350.851 284.082 345.157 283.987 339.897 284.18L339.88 221.81L339.863 199.975C339.857 196.354 339.722 191.755 339.896 188.191Z" fill="#595959"/>
<path d="M426.487 188.204C436.3 188.134 446.112 188.135 455.926 188.206C455.885 189.062 455.887 189.89 455.881 190.745C455.747 214.968 456.125 239.25 455.823 263.469C459.205 263.659 463.864 263.476 467.35 263.507C476.214 263.585 485.122 263.404 493.988 263.59C493.79 268.266 493.934 272.89 493.906 277.558C493.895 279.172 494.021 282.738 493.774 284.138C489.352 283.963 484.318 284.068 479.844 284.069L455.819 284.078L437.294 284.092C433.984 284.097 429.669 283.991 426.435 284.222L426.421 219.399L426.417 199.061C426.415 196.108 426.265 190.94 426.487 188.204Z" fill="#595959"/>
<path d="M309.354 101.693C317.922 101.424 325.905 103.266 332.602 109.023C346.529 121.002 347.323 146.078 335.452 159.687C329.473 166.54 321.825 169.419 312.976 169.965C303.461 170.13 296.565 168.849 289.066 162.396C282 156.171 278.604 146.893 278.306 137.634C277.664 117.687 289.056 102.817 309.354 101.693ZM312.309 159.081C326.913 158.116 331.292 145.809 330.435 132.818C329.614 120.371 322.631 111.865 309.583 112.394C304.82 112.791 299.937 114.741 296.76 118.477C291.453 124.714 291.073 132.119 291.596 139.96C291.975 145.647 294.308 151.519 298.764 155.233C302.879 158.664 307.148 159.142 312.309 159.081Z" fill="#595959"/>
<path d="M257.508 102.941C261.7 102.895 265.892 102.888 270.084 102.923C269.895 109.501 270.069 117.072 270.068 123.724L270.038 169.104L266.993 168.965C263.842 169.072 260.741 168.843 257.587 169.12L257.598 140.761C249.513 140.537 241.294 140.876 233.197 140.735C231.324 140.702 229.525 140.754 227.644 140.616L227.653 169.046C223.57 169.047 219.172 168.901 215.128 169.044C214.936 149.877 215.327 130.641 215.151 111.469C215.125 108.662 215.222 105.818 215.068 103.016L217.148 102.951C220.556 102.846 224.165 102.917 227.589 102.932C227.801 111.066 227.843 121.999 227.609 130.119C237.548 129.938 247.667 130.295 257.606 130.025C257.42 127.91 257.554 123.638 257.557 121.35C257.596 115.214 257.58 109.077 257.508 102.941Z" fill="#595959"/>
<path d="M436.294 101.695C442.423 101.338 450.121 102.6 455.173 106.184C461.854 110.925 463.721 116.105 465.165 123.68C461.368 123.661 456.193 123.485 452.503 123.731C452.015 120.918 450.538 117.301 448.471 115.347C443.773 110.908 432.468 110.699 427.98 115.449C426.645 116.862 425.655 119.554 425.869 121.466C426.811 129.876 441.29 129.091 447.465 131.134C452.35 132.329 456.876 133.814 460.673 137.236C467.568 143.45 466.387 156.606 460.083 162.913C454.531 168.466 448.492 169.641 440.889 169.855C432.881 169.806 426.042 168.74 419.639 163.358C415.325 159.732 412.129 153.313 411.748 147.654C415.981 147.602 420.214 147.618 424.446 147.702L424.483 147.878C425.186 151.189 426.885 155.267 429.892 157.129C434.124 159.678 440.597 159.98 445.318 158.89C451.39 157.487 453.743 152.797 452.301 147.071C448.327 143.258 445.887 143.084 440.757 141.892C433.247 140.149 424.17 139.043 418.238 133.722C415.387 131.166 413.686 127.571 413.511 123.746C412.774 109.836 423.349 102.345 436.294 101.695Z" fill="#595959"/>
<path d="M541.787 118.532C547.504 118.017 548.876 119.804 552.146 123.913C552.687 124.594 554.898 126.463 555.639 127.1C559.064 130.045 560.423 132.785 561.919 136.97C564.239 135.688 565.66 136.384 568.168 136.904C567.187 134.545 565.699 130.493 564.541 128.331C562.756 126.243 559.426 125.284 558.107 122.765C557.507 121.852 558.301 119.554 559.43 119.362C563.19 118.723 569.42 122.258 572.631 123.713C578.864 126.537 584.488 128.745 590.87 131.095C592.413 131.663 594.024 132.73 595.46 133.531C596.301 134.008 597.017 134.845 597.366 135.727C597.932 136.91 596.815 138.556 595.612 138.661C589.84 139.163 577.84 134.621 572.95 131.996C574.141 133.96 575.579 137.137 576.616 139.289C580.824 141.719 586.549 142.527 590.218 145.819C591.272 146.763 589.486 150.182 588.386 151.021C587.627 151.093 587.777 151.01 586.983 150.542C585.284 149.705 582.585 148.651 580.781 147.886C583.036 153.586 586.536 159.2 587.797 164.997C587.16 166.374 586.01 168.065 584.693 168.876C584.399 169.057 584.05 169.192 583.71 169.086C580.582 168.111 573.355 148.347 571.181 144.313C568.688 143.397 566.508 142.813 563.928 142.257C563.967 142.403 564.005 142.55 564.039 142.697C565.167 147.592 565.788 155.605 563.139 160.004C559.893 165.396 552.695 164.392 548.263 161.097C540.399 155.164 530.879 147.123 528.942 136.932C526.827 125.821 531.369 120.512 541.787 118.532ZM553.798 155.032C562.758 153.851 557.313 136.842 552.745 132.654L552.366 132.58C552.035 133.236 552.399 134.611 552.537 135.411C547.637 133.891 551.015 133.061 548.878 129.502C548.296 128.532 546.759 128.482 546.084 127.641C545.22 126.631 545.77 125.918 544.92 125.254C543.931 125.109 543.04 125.24 542.051 125.336C536.84 126.131 533.582 129.921 534.415 135.44C535.514 142.718 546.623 154.474 553.798 155.032Z" fill="#595959"/>
<path d="M475.306 102.948C490.102 102.686 506.128 102.77 520.946 102.945L520.876 113.828C516.297 113.627 511.35 113.707 506.726 113.704L485.278 113.73C485.671 116.747 485.455 126.219 485.43 129.623C492.566 129.441 502.02 129.408 509.157 129.676C508.983 133.099 509.042 136.764 509.071 140.191C501.207 140.229 493.341 140.191 485.476 140.075L485.461 149.277C485.459 152.274 485.476 155.271 485.509 158.268C497.48 158.603 510.155 157.948 522.178 158.349C522.036 161.803 522.061 165.6 521.997 169.086C510.638 168.586 498.725 169.247 487.302 168.99C482.8 168.889 477.495 168.786 473.054 169.081C472.852 163.607 473.082 156.593 473.072 150.995L473 102.973L475.306 102.948Z" fill="#595959"/>
<path d="M393.644 102.954C397.626 102.872 401.609 102.87 405.59 102.947L405.543 113.073V133.344C405.543 139.604 405.841 145.275 404.539 151.465C402.21 162.534 393.796 169.128 382.699 169.888C371.982 170.623 361.462 168.891 355.369 159.075C353.138 155.464 351.627 149.756 351.472 145.496C351.188 137.727 351.342 129.835 351.349 122.045L351.329 110.032C351.324 108.582 351.006 103.809 351.765 102.934C355.358 103.075 360.183 102.899 363.944 102.96L363.95 141.225C364.057 152.655 367.082 159.371 379.402 159.292C391.258 159.364 393.822 151.281 393.713 140.939C393.58 128.33 393.915 115.589 393.644 102.954Z" fill="#595959"/>
</g>
</svg>
