<svg width="820" height="383" viewBox="0 0 820 383" fill="none" xmlns="http://www.w3.org/2000/svg">
<g style="mix-blend-mode:luminosity">
<path d="M423.254 124.003C425.629 123.859 428.234 123.737 430.605 123.829C461.207 125.017 470.145 165.4 452.152 185.963C442.965 196.466 421.02 199.927 410.508 189.986C410.258 195.473 410.379 201.779 410.371 207.329L410.363 221.984C405.555 221.417 390.188 221.739 384.977 221.904C385.491 190.176 385.055 156.93 384.99 125.113C392.623 125.053 400.375 124.91 408.016 125.085C411.895 125.175 409.395 126.581 411.02 128.237C416.008 125.91 417.691 124.785 423.254 124.003ZM424.434 174.204C442.949 168.844 437.687 144.923 422.305 145.451C403.793 149.218 407.023 174.371 424.434 174.204Z" fill="#595959"/>
<path d="M623.656 105.617L623.871 105.704C624.863 106.967 624.469 122.273 624.465 125.016L640.461 125.075C640.418 132.767 640.445 140.46 640.547 148.152C635.207 148.025 629.809 148.288 624.445 148.247C624.465 150.644 624.469 153.239 624.402 155.626C624.004 170.093 623.559 177.944 640.949 171.004C640.801 176.243 641.02 181.433 641.055 186.663C641.066 188.451 641.348 192.111 640.012 193.275C637.059 195.851 629.891 195.807 626.176 195.807C619.07 195.806 611.602 194.347 606.488 189.055C598.934 181.242 599.355 173.558 599.391 163.494L599.465 148.141C592.641 148.014 587.551 148.38 581.102 150.558C573.992 152.936 573.543 161.325 573.535 167.587C573.523 176.528 573.754 185.515 573.469 194.447C568.07 193.928 553.438 194.143 547.902 194.436C548.551 172.511 548.043 147.195 547.937 125.09L573.523 125.083C573.574 127.569 573.711 130.146 573.812 132.639C581.109 124.152 589.145 125.005 599.367 125.155C599.379 120.755 599.324 116.296 599.625 111.911C608.289 109.303 614.777 107.616 623.656 105.617Z" fill="#595959"/>
<path d="M340.939 97.4782C351.128 95.7907 364.332 99.6316 372.116 106.385C372.737 112.387 372.51 125.347 372.405 131.744C370.696 132.121 364.911 126.228 361.364 124.36C355.965 120.99 336.583 114.829 335.686 125.603C335.256 130.772 356.756 137.947 361.265 140.135C363.778 141.38 366.138 142.911 368.299 144.698C373.911 149.269 377.603 154.699 378.251 161.988C378.9 169.289 377.89 178.268 372.981 184.041C363.963 194.644 357.448 196.187 344.498 197.421C332.248 198.176 322.21 194.926 312.195 188.266C311.619 183.442 311.922 167.475 312.162 162.322C320.287 169.193 349.332 185.311 354.254 167.915C355.611 163.118 331.653 154.385 327.57 152.35C325.16 151.156 322.914 149.657 320.886 147.889C308.73 137.357 308.08 120.832 318.162 108.279C323.205 102.001 332.93 97.9792 340.939 97.4782Z" fill="#595959"/>
<path d="M497.3 123.094C517.554 119.357 537.003 132.763 540.726 153.029C544.444 173.297 531.034 192.743 510.776 196.455C490.534 200.163 471.116 186.76 467.398 166.511C463.679 146.262 477.066 126.828 497.3 123.094ZM505.773 174.093C509.476 172.949 513.441 171.099 515.019 167.34C519.343 157.055 514.968 145.154 502.569 145.47C498.542 146.422 495.866 147.894 493.589 151.605C491.382 155.262 490.71 159.643 491.714 163.795C493.253 170.176 499.136 174.815 505.773 174.093Z" fill="#595959"/>
<path d="M128.728 97.0703C131.024 97.1481 134.214 97.3157 136.23 98.3029C147.325 103.737 156.313 117.999 166.007 125.109C163.824 128.714 155.473 136.584 152.032 139.341C145.037 132.978 136.307 123.911 129.628 117.017C127.048 119.867 123.939 122.753 121.156 125.446C125.893 132.644 136.177 139.639 141.255 146.153C143.98 149.649 164.685 168.527 165.476 170.798C164.013 174.071 156.634 180.417 153.611 183.303C146.831 189.777 141.489 198.647 131.517 199.377C128.28 199.426 121.881 199.335 119.65 197.337C115.28 193.424 94.4477 174.337 93.6199 170.553C94.7875 168.507 104.432 159.374 106.818 157.038C108.66 158.411 110.974 161.004 112.752 162.641C118.622 168.046 123.901 174.166 129.739 179.552C131.159 177.629 135.953 172.768 137.854 170.584C134.966 168.318 125.013 158.367 122.476 155.473C118.429 150.856 94.7043 129.192 93.4648 125.415C95.2449 122.352 102.277 116.34 105.038 113.507C112.567 105.785 117.508 98.0372 128.728 97.0703Z" fill="#595959"/>
<path d="M711.601 124.01C718.511 123.394 723.581 123.891 730.296 124.838C730.714 131.971 730.417 141.407 730.366 148.683C725.108 146.576 719.745 144.765 714.046 146.725C710.296 148.029 707.226 150.788 705.53 154.381C701.148 163.738 708.327 173.15 718.089 173.68C722.851 173.939 726.296 172.141 730.573 170.454C729.776 177.308 731.147 187.718 730.159 194.769C729.565 194.891 728.972 195 728.378 195.096C715.726 197.135 706.304 196.313 694.722 188.86C678.608 178.492 675.55 154.895 685.761 139.293C691.452 130.598 700.753 125.62 711.601 124.01Z" fill="#595959"/>
<path d="M219.495 180.086C223.703 180.763 225.8 189.059 225.946 192.828C226.133 196.905 225.09 200.946 222.953 204.423C220.762 207.919 211.119 217.083 207.663 220.489L186.29 241.803C182.709 245.366 178.203 249.534 174.857 253.124C169.12 247.653 163.315 241.353 157.48 235.855C154.835 233.362 152.614 230.395 149.752 227.927C134.401 214.409 137.121 215.597 151.91 202.32C154.212 203.813 156.116 206.215 158.151 208.023C163.934 213.162 169.164 219.435 174.792 224.568C184.197 214.649 194.145 204.787 203.853 195.158C207.217 191.821 216.248 182.229 219.495 180.086Z" fill="#595959"/>
<path d="M37.8592 180.352C42.0736 180.832 69.0096 211.02 74.3233 215.01C75.7311 216.068 81.7573 222.809 84.0745 224.785C91.3698 217.511 99.2006 209.174 106.781 202.255C109.148 204.499 118.881 214.104 120.231 215.848C119.428 218.38 113.805 223.331 111.653 225.397C102.894 234.204 92.4729 244.112 84.0815 253.103C77.0733 246.798 68.2311 237.052 61.4073 230.282L46.3522 215.401C41.1903 210.31 33.6813 204.425 33.0246 196.752C32.4233 189.728 33.4706 185.916 37.8592 180.352Z" fill="#595959"/>
<path d="M364.064 242.415L379.123 242.445C378.1 247.009 376.998 251.554 375.818 256.08C373.056 267.445 369.793 278.503 367.474 289.994C361.724 289.693 355.676 289.976 349.779 289.717C348.696 280.399 346.214 271.577 344.872 262.25C342.796 267.298 339.393 283.92 338.038 289.999C332.327 289.66 326.256 290.017 320.35 289.691C319.908 281.192 315.326 266.994 313.482 258.369C312.595 254.22 310.944 247.029 309.479 243.341L309.846 242.808L311.621 242.494C315.934 242.36 320.25 242.374 324.561 242.539C326.159 251.869 328.005 264.687 330.326 273.543C331.062 267.614 332.456 262.47 333.648 256.676C334.632 251.893 335.368 247.32 336.457 242.518C341.039 242.263 347.191 242.381 351.763 242.559C354.647 252.176 356.277 262.679 359.378 272.977C360.05 263.632 362.607 251.981 364.064 242.415Z" fill="#595959"/>
<path d="M660.039 257.674C663.441 254.136 666.961 251.367 672.09 251.355C676.383 251.282 680.402 252.259 683.566 255.335C688.051 259.697 688.219 265.531 688.156 271.355C688.086 277.538 688.094 283.768 688.051 289.973C683.293 289.843 678.973 289.885 674.211 289.991L674.231 289.729C674.484 285.588 675.211 267.026 672.563 265.193C660.453 256.806 662.809 279.964 662.844 284.415C662.816 286.263 662.941 288.127 663.039 289.974C658.543 289.737 653.539 289.876 649.004 289.905C649.004 285.826 649.023 281.716 649.051 277.641C649.082 272.303 649.969 261.866 641.512 263.61C639.125 264.102 638.285 265.687 637.035 267.563C636.637 274.598 636.84 282.845 636.852 289.972C632.313 289.766 627.484 289.869 622.922 289.888C623.551 279.027 623.078 262.948 623.086 251.645C627.441 251.69 631.848 251.419 636.191 251.694C637.367 252.846 636.258 253.591 637.277 254.845C640.391 254.193 639.41 251.985 645.656 251.412C651.57 251.133 656.453 252.778 660.039 257.674Z" fill="#595959"/>
<path d="M731.91 257.633C732.094 257.392 732.285 257.157 732.484 256.928C739.984 248.1 756.555 249.879 758.844 261.803C760.449 270.148 759.094 281.184 759.484 289.979C755.051 289.769 750.418 289.888 745.969 289.931C745.988 283.09 746.375 272.881 745.184 266.466C744.871 266.091 744.539 265.729 744.195 265.38C742.031 263.149 738.164 262.74 736.281 265.091C733 269.182 734.172 279.283 734.234 284.653L734.254 289.962C729.66 289.795 725.187 289.868 720.594 289.921C720.664 285.289 721.769 267.475 718.328 265.093C705.648 256.32 708.492 284.051 708.5 289.987C703.996 289.76 699.34 289.843 694.832 289.916C695.219 285.972 695.051 280.028 695.047 275.987C695 267.87 695.027 259.752 695.129 251.635L708.316 251.674C708.457 252.921 708.527 253.246 708.879 254.426C710.473 255.405 711.891 252.844 713.676 252.232C715.258 251.689 716.238 251.598 717.867 251.448C723.969 250.555 727.883 253.642 731.91 257.633Z" fill="#595959"/>
<path d="M648.344 125.047L674.086 125.064C673.567 147.34 674.02 172.057 674.047 194.445C667.055 194.001 655.192 194.031 648.348 194.537C647.852 172.308 648.176 147.379 648.344 125.047Z" fill="#595959"/>
<path d="M513.578 239.79C515.094 239.655 514.656 239.478 515.594 240.158C516.051 242.378 515.781 250.927 515.836 253.577C516.074 265.512 515.512 278.128 515.828 289.999L510.164 289.834C507.676 289.874 505.187 289.89 502.699 289.881C501.582 288.924 502.445 288.509 501.652 286.547C499.695 286.903 500.219 288.125 499.152 288.665C493.664 291.444 484.234 290.342 480.312 286.194C472.914 278.37 473.016 262.918 480.48 255.482C486.52 249.464 496.004 249.785 501.852 255.923C501.832 250.511 501.922 245.097 502.121 239.688C505.937 239.789 509.758 239.823 513.578 239.79ZM496.637 278.155C504.676 274.586 502.961 263.307 493.902 263.466C486.621 267.173 487.27 278.067 496.637 278.155Z" fill="#595959"/>
<path d="M513.578 239.79C515.094 239.655 514.656 239.478 515.594 240.158C516.051 242.378 515.781 250.927 515.836 253.577C516.074 265.512 515.512 278.128 515.828 289.999L510.164 289.834C511.602 289.448 512.008 289.779 513.797 289.077C514.176 283.924 514.273 241.982 513.578 239.79Z" fill="#595959"/>
<path d="M549.008 241.642C560.993 241.222 569.602 243.303 571.34 256.868C566.614 256.6 561.664 256.921 556.614 256.613C554.727 254.375 553.067 252.029 549.973 254.016C549.219 255.364 549.356 254.751 549.508 256.353C552.676 261.946 570.629 260.723 571.895 274.239C572.274 278.09 571.082 281.93 568.586 284.885C565.086 288.99 561.54 289.642 556.579 290.034C544.926 290.249 535.176 289.019 534.125 274.943C539.301 274.874 543.254 274.735 548.45 275.055C549.95 278.221 552.368 280.276 555.852 278.157C556.633 276.999 556.469 277.532 556.485 276.145C553.922 270.001 535.063 269.879 534.192 258.943C533.29 247.665 538.262 243.143 549.008 241.642Z" fill="#595959"/>
<path d="M398.598 251.434C425.664 247.375 430.719 286.755 405.523 289.985C399.277 290.297 393.78 290.357 388.298 286.372C380.172 280.467 379.357 266.643 385.16 258.868C388.36 254.582 393.164 252.068 398.598 251.434ZM402.851 278.095C410.875 274.302 408.988 263.043 400.223 263.382C393.333 267.248 393.862 278.386 402.851 278.095Z" fill="#595959"/>
<path d="M576.691 251.664L590.757 251.625C590.722 257.06 589.617 273.52 592.675 277.026C593.531 278.022 594.765 278.612 596.078 278.653C605.523 279.027 602.878 258.188 602.914 251.652L616.414 251.65C616.242 256.591 616.359 262.138 616.363 267.124L616.375 289.982C612.418 289.728 607.429 289.971 603.203 289.815C602.121 288.951 603.039 288.525 602.343 286.599C601.711 286.578 596.621 289.945 592.125 290.181C572.089 291.23 576.531 266.069 576.691 251.664Z" fill="#595959"/>
<path d="M196.756 157.32C203.12 158.918 204.707 174.799 200.896 180.353C193.749 190.774 183.947 198.794 174.986 207.679C173.59 206.535 172.717 205.809 171.482 204.505C167.885 200.732 164.507 197.52 160.695 193.956C163.541 189.98 170.704 183.21 174.273 179.665C181.705 172.155 189.2 164.706 196.756 157.32Z" fill="#595959"/>
<path d="M61.6261 157.078C70.5457 165.651 79.1015 174.893 88.1113 183.371C91.8168 186.858 94.6109 189.793 97.8332 193.753C95.3078 196.95 90.9816 200.955 87.9902 203.88L84.0726 207.72C81.2203 205.424 79.1894 202.584 76.6297 200.122C73.0468 196.675 69.425 193.415 65.9797 189.809C60.3574 183.924 55.3215 179.334 55.5484 170.43C55.6925 164.776 57.7175 160.894 61.6261 157.078Z" fill="#595959"/>
<path d="M456.645 239.768C461.238 239.778 465.926 239.849 470.508 239.633L470.563 290.008C465.695 289.773 460.809 289.874 455.938 289.92C456.344 282.731 455.102 242.148 456.645 239.768Z" fill="#595959"/>
<path d="M450.941 251.431L451.976 251.398C452.741 252.448 452.398 263.712 452.507 266.126C435.792 265.784 440.398 276.394 440.327 289.99C437.464 289.758 428.198 290.477 426.569 289.328L426.433 287.738C426.343 275.71 426.37 263.68 426.511 251.651L440.163 251.643C440.28 253.437 440.335 255.312 440.417 257.115C443.905 253.459 446.003 252.125 450.941 251.431Z" fill="#595959"/>
<path d="M657.531 92.1944C664.945 90.1711 672.597 94.5307 674.644 101.943C676.687 109.354 672.351 117.024 664.949 119.091C657.515 121.167 649.812 116.808 647.757 109.365C645.706 101.922 650.085 94.2262 657.531 92.1944Z" fill="#595959"/>
<path d="M766.625 251.599C771.071 251.682 775.516 251.664 779.961 251.543C779.957 264.035 779.704 277.547 780.09 289.959C775.559 289.761 770.918 289.87 766.375 289.917C766.735 277.337 765.918 264.25 766.625 251.599Z" fill="#595959"/>
<path d="M83.5348 135.062C87.0676 135.269 95.6481 145.315 98.0231 148.405C96.52 150.823 91.2688 155.683 89.0247 157.858C88.4758 158.404 87.9235 158.947 87.3673 159.486C85.877 160.925 83.6938 163.345 81.895 160.658C76.7001 152.898 76.5403 141.65 83.5348 135.062Z" fill="#595959"/>
<path d="M174.098 135.125C179.37 135.687 180.916 145.117 180.614 149.492C180.262 154.607 178.589 158.816 174.783 162.273L171.217 158.66L160.936 148.543C162.947 145.514 171.123 137.264 174.098 135.125Z" fill="#595959"/>
<path d="M771.953 234.592C773.57 234.432 776.179 234.857 777.621 235.625C779.289 236.527 780.523 238.064 781.039 239.888C781.562 241.755 781.285 243.756 780.273 245.41C778.781 247.897 776.761 248.25 774.132 248.904C770.351 248.883 766.48 247.713 765.378 243.659C764.886 241.835 765.16 239.891 766.128 238.272C767.628 235.712 769.324 235.283 771.953 234.592Z" fill="#595959"/>
<path d="M174.762 270.371C190.814 253.85 207.082 237.541 223.563 221.449C226.647 218.453 240.704 202.582 243.841 203.112C247.365 207.53 248.726 212.998 248.276 218.645C247.579 227.403 241.069 232.093 235.086 238.051L216.872 256.242L197.029 276.119C193.609 279.541 189.754 283.563 186.125 286.7C181.306 290.867 169.093 290.897 163.992 287.113C159.848 284.04 155.814 279.627 152.183 275.933L137.637 261.205C135.211 258.701 131.585 255.625 129.521 253.08C127.162 255.727 124.431 258.453 121.847 260.966C113.32 269.261 103.712 280.732 94.2344 287.515C88.6723 291.496 75.5539 290.545 71.2473 285.258C67.7844 281.799 64.6195 278.646 61.298 275.285L43.7952 257.776C33.5244 247.605 22.8095 237.225 13.1389 226.472C12.1788 225.404 10.6216 220.462 10 218.796V213.352C11.2242 210.413 13.2428 203.64 16.5103 202.977C17.5099 203.512 18.4713 204.612 19.2784 205.429C33.2753 219.606 47.7682 233.474 61.7195 247.668L75.6551 261.599C78.4078 264.379 81.0848 267.521 84.0238 270.049C93.4992 260.408 103.036 250.827 112.631 241.306C115.769 238.177 126.051 227.183 129.349 225.565C131.986 226.47 170.445 265.701 174.762 270.371Z" fill="#595959"/>
<path d="M810 166.72C808.746 170.064 807.586 173.323 806.004 176.521C796.597 195.532 771.863 200.46 753.844 191.739C735.933 183.071 729.168 160.403 738.133 143.152C742.668 134.613 750.375 128.195 759.59 125.279C768.035 122.645 782.629 123.147 790.515 127.728C802.793 134.86 806.156 140.998 810 153.669V166.72ZM772.84 174.177C788.637 172.154 789.855 147.089 771.914 145.493C767.621 146.234 764.656 147.348 761.98 151.182C759.609 154.653 758.711 158.923 759.488 163.055C760.785 169.761 766.332 173.565 772.84 174.177Z" fill="#595959"/>
<path d="M789.074 242.724C793.551 242.756 798.027 242.739 802.504 242.676L802.598 251.557C805.32 251.594 807.309 251.611 810 251.965V262.985C807.656 263.024 804.941 263.138 802.633 263.093C802.574 267.52 802.254 273.113 803.344 277.313C805.617 277.706 807.695 278.095 810 278.274V289.688C808.293 289.813 806.582 289.879 804.871 289.884C786.086 290.041 788.91 277.421 788.934 263.343L784.527 263.064L784.621 251.804L788.949 251.593L789.074 242.724Z" fill="#595959"/>
</g>
</svg>
