<svg width="942" height="427" viewBox="0 0 942 427" fill="none" xmlns="http://www.w3.org/2000/svg">
<g style="mix-blend-mode:luminosity">
<path d="M543.325 114.222C549.622 113.979 556.549 114.122 562.892 114.136C561.64 122.41 559.741 131.454 558.177 139.733C555.183 157.783 549.824 178.393 547.506 196.174C539.949 196.534 532.051 196.39 524.462 196.341C523.891 189.7 522.429 181.254 521.421 174.621C519.72 163.583 518.078 152.537 516.495 141.481C512.926 157.111 510.902 179.853 508.648 196.29C500.838 196.438 493.028 196.436 485.218 196.286C480.903 168.37 475.499 141.883 470.168 114.117L490.576 114.153C491.156 119.478 492.761 127.578 493.686 133.065L499.536 168.377C502.669 152.954 505.511 130.135 507.765 114.193C513.795 113.999 520.405 114.113 526.481 114.099C529.282 130.779 531.495 152.535 534.93 168.404C535.464 166.17 535.791 163.684 536.016 161.392C537.584 145.623 541.434 129.921 543.325 114.222Z" fill="#595959"/>
<path d="M573.176 114.1C580.296 114.062 587.412 114.1 594.527 114.211C594.606 129.32 594.587 144.428 594.468 159.536C599.205 153.834 604.831 149.169 610.111 144.006L640.28 114.166C642.561 117.341 652.096 125.906 655.67 129.498C644.7 140.762 633.574 151.872 622.291 162.825C618.307 166.586 614.241 171.731 610.405 174.928C623.583 174.206 642.336 174.881 655.868 175.009C655.573 180.735 655.449 190.656 655.923 196.286C628.615 196.73 600.516 196.392 573.148 196.38C573.673 170.109 573.622 140.399 573.176 114.1Z" fill="#595959"/>
<path d="M466.175 210.338L484.339 210.29C495.898 210.263 507.562 209.546 516.366 218.363C524.618 226.624 525.924 238.054 525.878 249.191C525.832 259.7 524.793 271.753 516.96 279.576C506.61 288.743 498.589 288.142 485.342 288.103L465.991 288.014C466.58 262.342 465.692 236.081 466.175 210.338ZM485.374 272.977C491.284 272.815 498.225 273.441 502.512 269.019C505.727 264.506 506.321 258.867 506.233 253.441C506.109 245.823 507.613 233.442 501.128 228.055C498.326 225.729 489.113 226.013 485.356 225.963L485.374 272.977Z" fill="#595959"/>
<path d="M363.6 209.095C383.398 208.707 394.551 220.567 396.299 240.031C398.38 263.205 394.735 286.753 367.337 289.356C347.191 290.04 335.732 277.163 334.4 257.703C332.845 234.984 336.281 211.155 363.6 209.095ZM368.134 273.33C377.674 270.011 377.167 256.442 376.928 248.082C376.607 236.846 377.983 224.792 363.222 225.539C352.259 228.276 354.067 241.036 354.02 250.164C353.959 262.011 353.106 274.055 368.134 273.33Z" fill="#595959"/>
<path d="M560.066 209.102C580.25 209.192 590.208 220.198 592.043 240.144C593.105 251.655 592.774 269.058 585.277 278.789C579.67 286.06 571.667 288.562 562.817 289.369C541.709 289.493 531.765 276.667 530.629 256.486C529.313 233.026 532.924 211.094 560.066 209.102ZM564.064 273.325C573.677 269.736 572.757 256.461 572.679 247.881C572.591 238.046 573.41 224.455 559.643 225.534C548.209 228.561 550.849 240.608 550.389 250.234C550.071 256.924 550.154 268.662 556.598 272.342C558.751 273.589 561.663 273.423 564.064 273.325Z" fill="#595959"/>
<path d="M597.545 210.459C603.63 210.269 609.582 210.343 615.667 210.398C622.686 223.97 631.338 239.576 638.923 252.949C638.329 239.876 638.803 223.637 638.84 210.332L656.13 210.35C655.753 227.892 656.36 245.984 656.121 263.549C656.019 270.857 656.488 280.338 655.95 287.47C654.81 288.329 654.566 288.021 652.8 288.041L641.218 288.027C639.567 283.773 636.043 278.848 633.803 274.746C627.902 263.956 621.099 253.397 615.207 242.669C614.844 257.269 615.097 273.357 615.138 288.03C609.113 288.106 603.087 288.04 597.062 287.831C597.866 281.945 597.241 270.76 597.374 264.439C597.747 246.832 596.804 227.964 597.545 210.459Z" fill="#595959"/>
<path d="M401.873 210.406C407.778 210.257 413.841 210.354 419.761 210.388C427.054 223.974 434.804 238.928 442.301 252.173C441.857 239.157 442.131 223.503 442.266 210.416C448.051 210.27 454.133 210.345 459.942 210.332C459.717 227.534 460.063 244.937 459.925 262.152C459.859 270.444 460.182 279.31 459.791 287.522C458.93 288.26 457.804 288.001 456.397 288.038L445.02 287.92C440.496 279.169 434.824 271.282 430.556 262.206C427.593 255.903 422.9 248.805 419.316 242.703C419.735 257.329 419.185 273.281 419.289 288.088L401.426 287.95C401.835 284.66 401.923 281.25 401.902 277.936C401.755 255.462 401.541 232.873 401.873 210.406Z" fill="#595959"/>
<path d="M434.343 112.379C435.273 112.299 436.204 112.248 437.137 112.224C458.046 111.762 467.472 123.642 467.812 143.485L449.631 143.346L449.532 140.672C449.066 130.329 439.897 123.07 430.697 131.48C429.634 132.686 428.905 135.202 429.22 136.707C430.961 145.01 444.808 146.388 451.895 148.823C454.829 149.818 457.59 151.267 460.076 153.117C473.18 163.039 471.75 184.237 458.194 193.174C453.534 196.246 449.422 197.028 443.973 197.72C429.857 199.111 414.544 194.172 410.255 179.256C409.016 174.948 408.963 171.831 408.909 167.34C415.045 167.327 421.181 167.271 427.316 167.171C427.602 172.193 428.18 176.842 432.638 180.056C436.959 183.173 445.016 182.906 448.2 178.207C449.217 176.734 449.57 174.902 449.172 173.157C448.859 171.758 447.677 169.504 446.388 168.856C432.48 161.869 410.813 161.492 409.749 141.069C408.843 123.695 418.039 115.568 434.343 112.379Z" fill="#595959"/>
<path d="M309.966 112.421C322.292 111.145 335.411 115.983 340.749 127.888C343.032 132.979 343.121 137.973 343.184 143.451L325.163 143.395C325.142 138.381 325.174 134.375 320.968 130.495C315.364 125.325 302.94 128.793 304.127 137.078C305.196 144.543 320.61 146.149 326.393 148.644C329.998 149.837 332.727 151.375 335.921 153.475C346.369 160.341 346.8 177.727 339.915 187.311C335.172 193.914 326.956 196.77 318.698 197.839C317.575 197.877 316.452 197.897 315.329 197.901C295.156 197.946 284.128 187.629 284.209 167.409C290.149 167.22 296.331 167.272 302.292 167.248C302.322 168.409 302.381 169.571 302.468 170.729C303.137 178.726 308.914 182.343 316.733 181.89C324.377 182.024 328.106 171.696 321.239 168.363C307.46 161.677 287.924 162.34 285.29 142.677C282.976 125.399 293.395 114.813 309.966 112.421Z" fill="#595959"/>
<path d="M388.513 114.198C395.237 113.963 402.62 114.121 409.392 114.138C402.075 127.94 394.389 140.124 386.866 153.497C390.061 158.398 409.928 192.528 410.556 195.854C409.372 196.531 407.332 196.364 405.873 196.373C400.348 196.399 394.434 196.555 388.952 196.125C386.473 190.699 378.836 176.467 375.747 170.907C371.222 178.355 365.806 188.556 361.873 196.419L340.762 196.288C348.704 182.12 357.277 168.074 365.108 153.819C359.737 144.956 354.984 136.648 350.192 127.443C347.856 122.954 344.977 119.062 342.66 114.235C349.944 114.091 357.229 114.064 364.513 114.154C367.451 120.571 373.247 130.598 376.793 137.465C381.093 128.389 383.437 123.26 388.513 114.198Z" fill="#595959"/>
<path d="M285.962 210.37L305.04 210.363L305.134 272.413C314.18 272.033 325.361 272.288 334.456 272.399C334.441 277.577 334.483 282.755 334.582 287.932C319.127 288.464 301.504 288.053 285.871 287.996C286.732 264.256 286.042 234.377 285.962 210.37Z" fill="#595959"/>
</g>
</svg>
